<?xml version="1.0" standalone="no"?>
<!DOCTYPE svg PUBLIC "-//W3C//DTD SVG 20010904//EN"
 "http://www.w3.org/TR/2001/REC-SVG-20010904/DTD/svg10.dtd">
<svg version="1.0" xmlns="http://www.w3.org/2000/svg"
 width="512.000000pt" height="512.000000pt" viewBox="0 0 512.000000 512.000000"
 preserveAspectRatio="xMidYMid meet">

<g transform="translate(0.000000,512.000000) scale(0.100000,-0.100000)"
fill="#000000" stroke="none">
<path d="M1433 4923 c-18 -2 -33 -6 -33 -7 0 -2 7 -21 16 -42 11 -26 14 -54
11 -86 l-6 -48 43 0 43 0 -13 49 c-12 46 -7 101 10 130 7 11 -6 12 -71 4z"/>
<path d="M1843 4906 c16 -41 17 -85 4 -124 -14 -41 -14 -42 7 -42 11 0 31 -3
44 -6 21 -6 22 -5 12 20 -14 38 -12 91 4 131 l15 35 -46 0 c-35 0 -44 -3 -40
-14z"/>
<path d="M2268 4821 c3 -37 -2 -62 -16 -90 l-21 -39 22 -6 c46 -12 53 -8 49
32 -2 25 5 53 22 87 14 27 24 50 23 52 -2 1 -21 5 -42 8 l-40 7 3 -51z"/>
<path d="M1004 4827 l-50 -18 33 -35 c18 -19 38 -54 45 -77 6 -23 13 -44 14
-45 2 -2 19 1 39 8 l35 12 -24 29 c-23 27 -31 53 -38 119 l-3 25 -51 -18z"/>
<path d="M2668 4710 c-3 -41 -11 -69 -26 -89 l-21 -29 43 -15 44 -15 0 45 c1
29 10 61 27 89 l26 44 -23 9 c-68 25 -65 27 -70 -39z"/>
<path d="M626 4607 l-38 -32 38 -25 c21 -14 49 -44 62 -67 l23 -43 29 22 29
21 -27 21 c-39 30 -50 46 -65 93 l-12 42 -39 -32z"/>
<path d="M3080 4598 c0 -34 -24 -92 -50 -122 l-29 -33 35 -16 c19 -10 36 -17
38 -17 2 0 9 20 15 45 6 24 25 61 42 80 18 20 30 37 28 39 -7 6 -68 36 -74 36
-3 0 -5 -6 -5 -12z"/>
<path d="M3450 4383 c0 -33 -32 -90 -67 -119 l-26 -20 44 -26 44 -26 6 26 c9
41 36 88 64 110 23 18 23 20 7 34 -9 8 -29 22 -44 31 -28 17 -28 17 -28 -10z"/>
<path d="M327 4279 l-27 -44 28 -6 c37 -8 72 -27 104 -57 15 -14 29 -24 31
-21 12 16 37 59 37 64 0 3 -8 5 -18 5 -26 0 -96 48 -114 78 l-15 25 -26 -44z"/>
<path d="M3796 4099 c-12 -27 -34 -51 -63 -69 l-44 -28 41 -32 c32 -25 40 -28
40 -15 0 29 39 83 76 106 l35 21 -27 29 c-15 16 -30 29 -33 29 -3 0 -14 -19
-25 -41z"/>
<path d="M146 3893 c-4 -16 -9 -35 -11 -43 -4 -12 4 -14 45 -12 37 3 59 -1 86
-17 19 -12 37 -21 39 -21 1 0 8 13 13 29 10 28 10 29 -34 34 -24 2 -62 16 -84
31 -22 14 -41 26 -44 26 -2 0 -7 -12 -10 -27z"/>
<path d="M4110 3820 c-14 -33 -59 -73 -99 -88 l-24 -8 30 -34 29 -33 20 32
c22 33 80 81 100 81 26 0 22 18 -10 49 l-33 32 -13 -31z"/>
<path d="M4375 3486 c-11 -17 -43 -43 -71 -57 l-52 -26 20 -32 20 -31 38 39
c22 23 56 45 79 52 l40 12 -17 29 c-27 46 -35 48 -57 14z"/>
<path d="M87 3492 c-2 -4 -2 -31 1 -59 4 -50 5 -52 25 -41 36 19 85 26 122 18
l35 -8 0 44 c0 43 -1 43 -26 34 -36 -14 -79 -12 -119 4 -19 8 -36 12 -38 8z"/>
<path d="M4606 3135 c-19 -29 -87 -64 -123 -65 l-23 0 22 -45 22 -45 25 24
c35 32 84 56 116 56 30 0 30 3 1 58 l-22 44 -18 -27z"/>
<path d="M291 3067 c-24 -15 -50 -21 -88 -21 -29 0 -53 -1 -53 -2 0 -1 6 -17
14 -35 7 -19 16 -42 19 -52 6 -16 8 -16 28 4 27 27 80 49 118 49 29 0 30 1 19
33 -16 47 -20 48 -57 24z"/>
<path d="M4768 2723 c-21 -14 -58 -28 -83 -31 -50 -5 -50 -5 -34 -51 10 -29
13 -30 28 -18 31 28 80 47 120 47 l40 0 -11 33 c-16 46 -19 48 -60 20z"/>
<path d="M478 2706 c-16 -19 -47 -42 -73 -51 -25 -10 -45 -20 -45 -24 0 -3 14
-22 31 -41 23 -27 32 -31 36 -20 7 18 80 91 106 105 16 9 16 12 -5 38 l-23 28
-27 -35z"/>
<path d="M776 2435 c-8 -31 -61 -92 -87 -100 -28 -9 -24 -19 21 -49 49 -32 50
-32 50 1 0 32 43 108 66 117 13 5 14 9 3 22 -7 8 -20 19 -30 24 -13 8 -18 5
-23 -15z"/>
<path d="M4897 2326 c-22 -16 -43 -21 -86 -21 l-58 0 10 -40 c6 -22 11 -41 12
-43 1 -1 17 6 36 15 20 11 56 18 87 18 l54 0 -7 40 c-8 53 -15 57 -48 31z"/>
<path d="M1130 2262 c0 -35 -22 -92 -46 -121 -27 -32 -26 -34 28 -49 l37 -10
-1 49 c0 31 8 64 20 88 l21 39 -30 11 c-25 8 -29 7 -29 -7z"/>
<path d="M1512 2169 c10 -38 5 -69 -18 -126 -4 -10 8 -13 45 -13 51 0 51 0 44
28 -4 15 -8 43 -8 62 0 19 4 47 8 63 7 27 7 27 -37 27 l-44 0 10 -41z"/>
<path d="M1930 2191 c5 -11 10 -43 10 -71 0 -28 -5 -60 -10 -71 -10 -17 -7
-19 34 -19 45 0 45 0 36 26 -6 14 -10 43 -10 64 0 21 4 50 10 64 9 26 9 26
-36 26 -41 0 -44 -2 -34 -19z"/>
<path d="M2347 2188 c4 -13 8 -43 8 -68 0 -25 -4 -55 -8 -67 -8 -22 -6 -23 43
-23 47 0 50 1 40 19 -13 25 -13 117 0 142 10 18 7 19 -40 19 -49 0 -51 -1 -43
-22z"/>
<path d="M2777 2183 c4 -16 8 -44 8 -63 0 -19 -4 -47 -8 -62 -7 -27 -6 -28 33
-28 39 0 41 2 33 23 -4 12 -8 42 -8 67 0 25 4 55 8 68 8 20 6 22 -33 22 -39 0
-40 -1 -33 -27z"/>
<path d="M3190 2184 c6 -14 10 -43 10 -64 0 -21 -4 -50 -10 -64 -9 -26 -9 -26
40 -26 49 0 49 0 40 26 -6 14 -10 43 -10 64 0 21 4 50 10 64 9 26 9 26 -40 26
-49 0 -49 0 -40 -26z"/>
<path d="M3626 2146 c5 -32 2 -60 -11 -92 -9 -25 -16 -47 -14 -48 2 -2 18 -6
34 -9 l30 -5 1 59 c0 44 6 66 22 89 l22 30 -27 6 c-16 3 -36 8 -45 11 -16 4
-17 -1 -12 -41z"/>
<path d="M4030 2035 c0 -35 -30 -108 -50 -120 -17 -11 -11 -21 23 -37 l33 -16
13 45 c7 27 25 59 46 80 l33 33 -49 25 -49 25 0 -35z"/>
<path d="M4966 1904 c-20 -12 -47 -15 -88 -12 -56 4 -59 3 -54 -16 3 -12 6
-33 6 -48 0 -27 0 -27 35 -12 40 16 83 18 119 4 26 -9 26 -9 26 45 0 30 -3 55
-7 55 -5 -1 -21 -8 -37 -16z"/>
<path d="M4400 1798 c-13 -40 -36 -68 -73 -93 l-28 -18 27 -22 28 -22 30 30
c35 34 83 57 122 57 27 0 27 1 -16 38 -78 67 -77 66 -90 30z"/>
<path d="M4700 1542 c0 -40 -24 -99 -53 -130 l-21 -23 61 -61 61 -61 46 33
c56 40 123 50 180 26 21 -9 40 -16 42 -16 2 0 4 38 4 85 l0 85 -26 -10 c-14
-6 -43 -10 -64 -10 -21 0 -50 4 -64 10 -21 7 -26 6 -26 -5 0 -25 -12 -18 -77
47 l-63 62 0 -32z"/>
<path d="M4137 503 l-57 -46 27 -17 c39 -24 63 -53 77 -94 l12 -34 73 60 73
60 -48 27 c-27 14 -58 40 -69 58 -11 18 -22 32 -25 32 -3 0 -31 -21 -63 -46z"/>
<path d="M3346 453 c-18 -36 -64 -79 -94 -91 l-24 -8 34 -25 c18 -14 50 -35
71 -48 l37 -23 0 27 c0 33 25 94 51 121 l20 22 -28 19 c-49 35 -52 35 -67 6z"/>
<path d="M3740 287 c0 -31 -7 -67 -18 -89 l-19 -36 38 -5 c20 -3 57 -3 82 0
l45 5 -20 35 c-14 23 -20 51 -20 89 l0 54 -44 0 -44 0 0 -53z"/>
</g>
</svg>
